<svg id="Layer_4" data-name="Layer 4" xmlns="http://www.w3.org/2000/svg" viewBox="0 0 252.32 227.7">
  <defs>
    <style>
      .cls-1 {
        fill: #939089;
        stroke: #594a42;
        stroke-miterlimit: 10;
        stroke-width: 4px;
      }

      .cls-2 {
        fill: #7c6e69;
      }

      .cls-3 {
        fill: #594a42;
      }
    </style>
  </defs>
  <title>rocket</title>
  <path class="cls-1" d="M744.16,182.76s-40.94,29-37.53,52.9,41,68.24,64.83,63.12,25.6,17.07,35.83,37.54,44.36,11.94,51.19,11.94,39.24-8.41,51.19,1.77S954,329.5,952.32,315.85s-5-42.66.06-54.6,1.65-51.19-6.88-64.84-27.3-40.95-47.78-59.71-73.36,0-73.36,0-20.48,27.3-41,27.3S744.16,182.76,744.16,182.76Z" transform="translate(-704.43 -126.35)"/>
  <ellipse class="cls-2" cx="62.11" cy="105.14" rx="33.7" ry="17.12"/>
  <ellipse class="cls-3" cx="62.11" cy="110.99" rx="26.12" ry="11.93"/>
  <ellipse class="cls-2" cx="147.14" cy="197.09" rx="26.95" ry="11.7"/>
  <ellipse class="cls-3" cx="147.14" cy="201.1" rx="20.89" ry="8.15"/>
  <ellipse class="cls-2" cx="202.56" cy="135.3" rx="33.7" ry="17.12"/>
  <ellipse class="cls-3" cx="200.21" cy="140.35" rx="26.12" ry="11.93"/>
  <ellipse class="cls-2" cx="159.74" cy="53.57" rx="25.53" ry="11.7"/>
  <ellipse class="cls-3" cx="159.74" cy="57.57" rx="19.79" ry="8.15"/>
</svg>
